<svg xmlns="http://www.w3.org/2000/svg" width="43" height="43" fill="none" viewBox="0 0 43 43"><g clip-path="url(#a)"><path fill="#1877f2" d="M42.667 21.333C42.667 9.551 33.115 0 21.333 0S0 9.551 0 21.333c0 10.648 7.801 19.474 18 21.075V27.5h-5.417v-6.167H18v-4.7c0-5.346 3.185-8.3 8.058-8.3 2.333 0 4.775.417 4.775.417V14h-2.69c-2.65 0-3.476 1.645-3.476 3.333v4h5.916l-.945 6.167h-4.971v14.907c10.198-1.6 18-10.426 18-21.074"/><path fill="#fff" d="m29.638 27.499.945-6.167h-5.916v-4c0-1.687.826-3.333 3.476-3.333h2.69v-5.25s-2.44-.417-4.775-.417c-4.873 0-8.058 2.953-8.058 8.3v4.7h-5.417v6.167H18v14.907a21.5 21.5 0 0 0 6.667 0V27.5z"/></g><defs><clipPath id="a"><path fill="#fff" d="M0 0h42.667v42.667H0z"/></clipPath></defs></svg>