<svg width="43" height="43" viewBox="0 0 43 43" fill="none" xmlns="http://www.w3.org/2000/svg">
<g clip-path="url(#clip0_187_40953)">
<path d="M42.6667 21.3333C42.6667 9.55125 33.1154 0 21.3333 0C9.55125 0 0 9.55125 0 21.3333C0 31.9813 7.80125 40.8071 18 42.4075V27.5H12.5833V21.3333H18V16.6333C18 11.2867 21.185 8.33333 26.0579 8.33333C28.3913 8.33333 30.8333 8.75 30.8333 8.75V14H28.1433C25.4933 14 24.6667 15.6446 24.6667 17.3333V21.3333H30.5833L29.6375 27.5H24.6667V42.4075C34.8654 40.8071 42.6667 31.9813 42.6667 21.3333Z" fill="#1877F2"/>
<path d="M29.6375 27.4987L30.5833 21.332H24.6667V17.332C24.6667 15.6449 25.4933 13.9987 28.1433 13.9987H30.8333V8.7487C30.8333 8.7487 28.3921 8.33203 26.0579 8.33203C21.185 8.33203 18 11.2854 18 16.632V21.332H12.5833V27.4987H18V42.4062C20.2088 42.7518 22.4579 42.7518 24.6667 42.4062V27.4987H29.6375Z" fill="white"/>
</g>
<defs>
<clipPath id="clip0_187_40953">
<rect width="42.6667" height="42.6667" fill="white"/>
</clipPath>
</defs>
</svg>
