<svg xmlns="http://www.w3.org/2000/svg" width="43" height="43" fill="none" viewBox="0 0 43 43"><rect width="37.333" height="37.333" x="2.667" y="2.668" fill="url(#a)" rx="8"/><rect width="37.333" height="37.333" x="2.667" y="2.668" fill="url(#b)" rx="8"/><rect width="37.333" height="37.333" x="2.667" y="2.668" fill="url(#c)" rx="8"/><path fill="#fff" d="M30.667 14a2 2 0 1 1-4 0 2 2 0 0 1 4 0"/><path fill="#fff" fill-rule="evenodd" d="M21.333 28a6.667 6.667 0 1 0 0-13.333 6.667 6.667 0 0 0 0 13.333m0-2.667a4 4 0 1 0 0-8 4 4 0 0 0 0 8" clip-rule="evenodd"/><path fill="#fff" fill-rule="evenodd" d="M8 20.8c0-4.48 0-6.72.872-8.432a8 8 0 0 1 3.496-3.496C14.08 8 16.32 8 20.8 8h1.067c4.48 0 6.72 0 8.432.872a8 8 0 0 1 3.496 3.496c.872 1.711.872 3.952.872 8.432v1.067c0 4.48 0 6.72-.872 8.432a8 8 0 0 1-3.496 3.496c-1.712.872-3.952.872-8.432.872H20.8c-4.48 0-6.72 0-8.432-.872a8 8 0 0 1-3.496-3.496C8 28.587 8 26.347 8 21.867zm12.8-10.133h1.067c2.284 0 3.837.002 5.037.1 1.169.095 1.767.269 2.184.481a5.33 5.33 0 0 1 2.33 2.33c.213.418.386 1.016.482 2.185.098 1.2.1 2.753.1 5.037v1.067c0 2.284-.002 3.837-.1 5.037-.096 1.169-.269 1.767-.481 2.184a5.33 5.33 0 0 1-2.331 2.33c-.417.213-1.015.386-2.184.482-1.2.098-2.753.1-5.037.1H20.8c-2.284 0-3.837-.002-5.037-.1-1.17-.096-1.767-.269-2.184-.481a5.33 5.33 0 0 1-2.331-2.331c-.212-.417-.386-1.015-.481-2.184-.098-1.2-.1-2.753-.1-5.037V20.8c0-2.284.002-3.837.1-5.037.095-1.17.269-1.767.481-2.184a5.33 5.33 0 0 1 2.33-2.331c.418-.212 1.016-.386 2.185-.481 1.2-.098 2.753-.1 5.037-.1" clip-rule="evenodd"/><defs><radialGradient id="a" cx="0" cy="0" r="1" gradientTransform="rotate(-55.376 37.222 .088)scale(34.0261)" gradientUnits="userSpaceOnUse"><stop stop-color="#b13589"/><stop offset=".793" stop-color="#c62f94"/><stop offset="1" stop-color="#8a3ac8"/></radialGradient><radialGradient id="b" cx="0" cy="0" r="1" gradientTransform="rotate(-65.136 39.69 9.186)scale(30.1257)" gradientUnits="userSpaceOnUse"><stop stop-color="#e0e8b7"/><stop offset=".445" stop-color="#fb8a2e"/><stop offset=".715" stop-color="#e2425c"/><stop offset="1" stop-color="#e2425c" stop-opacity="0"/></radialGradient><radialGradient id="c" cx="0" cy="0" r="1" gradientTransform="rotate(-8.13 28.485 -2.69)scale(51.8545 11.0911)" gradientUnits="userSpaceOnUse"><stop offset=".157" stop-color="#406adc"/><stop offset=".468" stop-color="#6a45be"/><stop offset="1" stop-color="#6a45be" stop-opacity="0"/></radialGradient></defs></svg>